<svg width="24" height="24" viewBox="0 0 24 24" fill="none" xmlns="http://www.w3.org/2000/svg">
<path d="M10.6 6.39999C10.2287 6.39999 9.8726 6.54749 9.61005 6.81004C9.3475 7.0726 9.2 7.42869 9.2 7.79999V14.8C9.2 15.1713 9.3475 15.5274 9.61005 15.7899C9.8726 16.0525 10.2287 16.2 10.6 16.2H14.8C15.1713 16.2 15.5274 16.0525 15.79 15.7899C16.0525 15.5274 16.2 15.1713 16.2 14.8V7.79999C16.2 7.42869 16.0525 7.0726 15.79 6.81004C15.5274 6.54749 15.1713 6.39999 14.8 6.39999H10.6ZM9.9 7.79999C9.9 7.61434 9.97375 7.43629 10.105 7.30502C10.2363 7.17374 10.4144 7.09999 10.6 7.09999H14.8C14.9857 7.09999 15.1637 7.17374 15.295 7.30502C15.4263 7.43629 15.5 7.61434 15.5 7.79999V14.8C15.5 14.9856 15.4263 15.1637 15.295 15.295C15.1637 15.4262 14.9857 15.5 14.8 15.5H10.6C10.4144 15.5 10.2363 15.4262 10.105 15.295C9.97375 15.1637 9.9 14.9856 9.9 14.8V7.79999ZM7.8 9.19999C7.80001 8.95425 7.8647 8.71283 7.98758 8.50001C8.11045 8.28719 8.28718 8.11047 8.5 7.98759V15.15C8.5 15.6141 8.68438 16.0592 9.01257 16.3874C9.34075 16.7156 9.78587 16.9 10.25 16.9H14.6124C14.4895 17.1128 14.3128 17.2895 14.1 17.4124C13.8872 17.5353 13.6457 17.6 13.4 17.6H10.25C9.60022 17.6 8.97706 17.3419 8.51759 16.8824C8.05813 16.4229 7.8 15.7998 7.8 15.15V9.19999Z" fill="#1E2020"/>
</svg>
